<svg xmlns="http://www.w3.org/2000/svg" width="225" height="199.5" viewBox="-0.5 9 225 199.5">
<g><path style="opacity:1" fill="#fca83d" d="M 87.5,33.5 C 86.928,34.9733 86.0946,36.3066 85,37.5C 83.9914,36.3418 82.6581,35.6752 81,35.5C 77.5562,35.8155 74.3895,36.8155 71.5,38.5C 69.8333,37.1667 68.1667,35.8333 66.5,34.5C 59.49,29.9933 52.1566,25.9933 44.5,22.5C 43.791,21.596 42.791,21.2627 41.5,21.5C 41.5,35.5 41.5,49.5 41.5,63.5C 39.78,61.3419 38.9467,58.6752 39,55.5C 38.6667,56.5 38.3333,57.5 38,58.5C 35.4169,57.7942 33.2503,56.4609 31.5,54.5C 30.7492,55.376 30.2492,56.376 30,57.5C 29.6174,56.944 29.1174,56.6107 28.5,56.5C 28.7947,54.2646 28.4614,52.2646 27.5,50.5C 27.3335,40.4944 27.5002,30.4944 28,20.5C 30.7933,9.01431 37.96,5.18098 49.5,9C 62.0413,14.7067 72.7079,22.8733 81.5,33.5C 83.4595,34.5192 85.4595,34.5192 87.5,33.5 Z"/></g>
<g><path style="opacity:1" fill="#fca941" d="M 198.5,14.5 C 198.565,17.4282 199.232,20.0948 200.5,22.5C 201.803,34.9612 201.803,47.2946 200.5,59.5C 200.666,49.8276 200.5,40.1609 200,30.5C 200.126,40.6661 199.126,50.6661 197,60.5C 194.618,61.8663 192.452,61.533 190.5,59.5C 189.692,61.4233 189.192,63.4233 189,65.5C 188.827,59.9842 188.327,54.6509 187.5,49.5C 187.5,47.1667 187.5,44.8333 187.5,42.5C 187.5,35.5 187.5,28.5 187.5,21.5C 185.901,21.2322 184.568,21.5655 183.5,22.5C 174.888,25.8041 166.888,30.1375 159.5,35.5C 158.761,35.631 158.094,35.4643 157.5,35C 159.349,33.907 161.016,32.5737 162.5,31C 161.551,30.3828 160.718,30.5494 160,31.5C 159.587,28.7679 158.92,26.1013 158,23.5C 156.871,25.1412 155.371,26.1412 153.5,26.5C 157.307,22.8651 161.307,19.3651 165.5,16C 174.203,9.78906 183.87,7.45572 194.5,9C 196.464,10.451 197.797,12.2843 198.5,14.5 Z"/></g>
<g><path style="opacity:1" fill="#f7c895" d="M 198.5,14.5 C 200.04,16.8383 200.706,19.5049 200.5,22.5C 199.232,20.0948 198.565,17.4282 198.5,14.5 Z"/></g>
<g><path style="opacity:1" fill="#f2c597" d="M 107.5,28.5 C 110.314,27.8353 113.314,27.502 116.5,27.5C 121.745,27.3917 126.745,28.0583 131.5,29.5C 123.521,28.7758 115.521,28.4425 107.5,28.5 Z"/></g>
<g><path style="opacity:1" fill="#f39834" d="M 159.5,35.5 C 158.833,36.1667 158.167,36.8333 157.5,37.5C 156.475,37.8966 156.308,38.5632 157,39.5C 168.58,46.5792 178.413,55.5792 186.5,66.5C 188.917,69.5164 188.584,71.5164 185.5,72.5C 189.62,75.8758 191.286,80.0425 190.5,85C 192.679,85.4419 193.345,86.4419 192.5,88C 194.887,88.9761 196.054,90.8094 196,93.5C 196.833,94.3333 197.667,95.1667 198.5,96C 198.211,101.216 197.878,106.716 197.5,112.5C 197.667,113.167 197.833,113.833 198,114.5C 198.654,113.304 199.154,113.304 199.5,114.5C 198.092,115.243 196.759,116.077 195.5,117C 196.819,119.285 198.319,121.452 200,123.5C 200.763,120.937 201.263,120.937 201.5,123.5C 200.41,126.093 198.743,128.259 196.5,130C 197,130.5 197.5,131 198,131.5C 198.837,129.993 200.004,129.493 201.5,130C 199.217,132.56 197.884,135.227 197.5,138C 199.285,139.163 201.285,139.83 203.5,140C 200.167,140.333 196.833,140.667 193.5,141C 194.448,141.483 195.448,141.649 196.5,141.5C 189.921,142.335 183.254,143.502 176.5,145C 173.295,145.912 170.961,147.745 169.5,150.5C 169.263,151.791 169.596,152.791 170.5,153.5C 171.964,154.16 173.631,154.493 175.5,154.5C 186.495,153.693 197.495,153.027 208.5,152.5C 206.708,153.309 204.708,153.809 202.5,154C 203.793,154.49 205.127,154.657 206.5,154.5C 206.599,157.237 206.265,159.904 205.5,162.5C 204.89,163.391 204.557,164.391 204.5,165.5C 194.774,163.563 184.94,162.23 175,161.5C 172.134,161.3 169.634,161.967 167.5,163.5C 167.285,165.179 167.952,166.179 169.5,166.5C 178.479,169.719 187.812,172.053 197.5,173.5C 195.393,174.468 193.059,174.802 190.5,174.5C 189.081,173.549 187.415,173.216 185.5,173.5C 179.787,170.897 173.787,170.23 167.5,171.5C 165.528,170.695 164.028,169.361 163,167.5C 160.521,170.662 157.521,172.995 154,174.5C 153.667,174.167 153.333,173.833 153,173.5C 151.487,177.965 148.321,179.965 143.5,179.5C 148.207,175.738 150.207,170.738 149.5,164.5C 147.517,164.157 146.183,164.824 145.5,166.5C 142.412,168.082 139.746,170.248 137.5,173C 132.56,176.104 127.226,177.104 121.5,176C 118.81,173.399 117.977,170.232 119,166.5C 119.671,165.748 120.504,165.414 121.5,165.5C 124.097,165.721 124.097,166.221 121.5,167C 122.662,167.827 123.829,168.66 125,169.5C 126.99,168.182 128.99,166.848 131,165.5C 131.333,166.167 131.667,166.833 132,167.5C 133.667,166.167 135.333,166.167 137,167.5C 139.959,166.266 142.626,164.599 145,162.5C 146.766,161.767 148.599,161.433 150.5,161.5C 150.281,160.325 150.614,159.325 151.5,158.5C 152.425,159.641 153.259,159.641 154,158.5C 155.019,156.731 155.186,155.064 154.5,153.5C 154.846,152.304 155.346,152.304 156,153.5C 156.202,151.744 156.702,150.078 157.5,148.5C 158.167,149.5 158.833,150.5 159.5,151.5C 160.228,149.807 161.228,148.307 162.5,147C 161.66,145.334 162.16,145.167 164,146.5C 165.079,144.606 166.413,144.273 168,145.5C 169.236,143.462 171.069,142.295 173.5,142C 172.66,140.334 173.16,140.167 175,141.5C 175.311,140.258 174.811,139.258 173.5,138.5C 174.698,138.06 175.865,137.727 177,137.5C 177.49,136.207 177.657,134.873 177.5,133.5C 178.833,133.5 180.167,133.5 181.5,133.5C 181.338,131.473 181.505,129.473 182,127.5C 183.924,127.217 185.591,125.884 187,123.5C 187.446,120.567 188.113,117.567 189,114.5C 189.605,112.519 190.605,112.185 192,113.5C 192.617,112.551 192.451,111.718 191.5,111C 194.741,107.824 194.741,103.824 191.5,99C 191.957,98.586 192.291,98.086 192.5,97.5C 191.011,97.4669 189.678,96.9669 188.5,96C 189.022,95.4387 189.355,94.772 189.5,94C 187.971,89.9082 185.971,86.0749 183.5,82.5C 183.709,81.914 184.043,81.414 184.5,81C 180.648,78.057 178.314,74.2236 177.5,69.5C 174.439,69.5557 172.272,68.2224 171,65.5C 170.667,65.8333 170.333,66.1667 170,66.5C 167.693,65.1669 165.859,63.3336 164.5,61C 163.216,60.3162 162.049,60.4829 161,61.5C 161.148,60.175 160.982,59.0084 160.5,58C 158.77,56.1476 157.604,56.3143 157,58.5C 153.333,55.1667 149.667,51.8333 146,48.5C 145.667,48.8333 145.333,49.1667 145,49.5C 142.791,45.8859 139.791,44.5525 136,45.5C 134.176,44.2513 134.343,43.0847 136.5,42C 136.167,41.8333 135.833,41.6667 135.5,41.5C 133.059,42.3266 130.893,42.3266 129,41.5C 126.463,38.9543 123.463,37.2876 120,36.5C 118.271,38.4337 116.271,38.4337 114,36.5C 111.892,39.186 109.392,39.8527 106.5,38.5C 103.129,39.0134 99.9622,40.0134 97,41.5C 93.5327,39.9786 92.1994,40.9786 93,44.5C 92.6667,44.1667 92.3333,43.8333 92,43.5C 89.2195,43.8947 87.0528,45.228 85.5,47.5C 80.2734,49.9759 74.9401,52.3092 69.5,54.5C 64.8974,58.8464 59.8974,62.6798 54.5,66C 50.2983,71.3661 46.2983,76.8661 42.5,82.5C 41.3906,84.3853 40.5573,86.3853 40,88.5C 39.2588,89.6405 38.4255,89.6405 37.5,88.5C 36.8719,92.5796 35.2053,96.0796 32.5,99C 34.103,100.907 33.7697,102.407 31.5,103.5C 32.6155,104.598 32.6155,105.765 31.5,107C 31.7591,108.261 32.4258,109.261 33.5,110C 31.1747,111.881 31.1747,113.548 33.5,115C 31.9169,117.506 32.5836,119.173 35.5,120C 34.8126,122.232 34.4793,124.398 34.5,126.5C 35.0354,128.271 35.8687,128.604 37,127.5C 37.8249,129.701 37.3249,131.534 35.5,133C 36.8764,135.543 38.043,135.709 39,133.5C 39.7845,135.286 40.9512,136.786 42.5,138C 41.062,138.219 39.7287,138.719 38.5,139.5C 41.6417,140.167 44.6417,140.834 47.5,141.5C 37.7504,141.194 28.0838,141.527 18.5,142.5C 18.5,136.167 18.5,129.833 18.5,123.5C 20.2501,109.583 24.5834,96.5831 31.5,84.5C 32.6451,82.0467 32.3117,79.7134 30.5,77.5C 29.6586,75.6208 29.3253,73.6208 29.5,71.5C 29.2491,66.4932 28.9157,61.4932 28.5,56.5C 29.1174,56.6107 29.6174,56.944 30,57.5C 30.2492,56.376 30.7492,55.376 31.5,54.5C 33.2503,56.4609 35.4169,57.7942 38,58.5C 38.3333,57.5 38.6667,56.5 39,55.5C 38.9467,58.6752 39.78,61.3419 41.5,63.5C 41.1455,65.7674 41.4789,67.1007 42.5,67.5C 50.7138,57.7869 60.0471,49.2869 70.5,42C 71.3366,40.9887 71.67,39.8221 71.5,38.5C 74.3895,36.8155 77.5562,35.8155 81,35.5C 82.6581,35.6752 83.9914,36.3418 85,37.5C 86.0946,36.3066 86.928,34.9733 87.5,33.5C 93.8226,30.4117 100.489,28.7451 107.5,28.5C 115.521,28.4425 123.521,28.7758 131.5,29.5C 136.573,31.5999 141.906,32.7666 147.5,33C 149.4,30.6647 151.4,28.498 153.5,26.5C 155.371,26.1412 156.871,25.1412 158,23.5C 158.92,26.1013 159.587,28.7679 160,31.5C 160.718,30.5494 161.551,30.3828 162.5,31C 161.016,32.5737 159.349,33.907 157.5,35C 158.094,35.4643 158.761,35.631 159.5,35.5 Z"/></g>
<g><path style="opacity:1" fill="#f0684d" d="M 44.5,22.5 C 52.1566,25.9933 59.49,29.9933 66.5,34.5C 63.6978,34.71 60.8644,35.0433 58,35.5C 55.7415,36.0917 54.0748,37.425 53,39.5C 51.9887,38.6634 50.8221,38.33 49.5,38.5C 47.5908,41.6636 45.7575,44.997 44,48.5C 43.1977,39.7551 43.3643,31.0884 44.5,22.5 Z"/></g>
<g><path style="opacity:1" fill="#f0664d" d="M 183.5,22.5 C 184.784,27.7559 185.451,33.2559 185.5,39C 185.333,44.1667 185.167,49.3333 185,54.5C 184.882,51.6287 184.216,48.962 183,46.5C 178.35,47.4207 175.184,45.5874 173.5,41C 168.145,39.8787 162.812,38.7121 157.5,37.5C 158.167,36.8333 158.833,36.1667 159.5,35.5C 166.888,30.1375 174.888,25.8041 183.5,22.5 Z"/></g>
<g><path style="opacity:1" fill="#f38245" d="M 183.5,22.5 C 184.568,21.5655 185.901,21.2322 187.5,21.5C 187.5,28.5 187.5,35.5 187.5,42.5C 186.509,36.021 186.176,29.3543 186.5,22.5C 185.5,22.5 184.5,22.5 183.5,22.5 Z"/></g>
<g><path style="opacity:1" fill="#fb9f37" d="M 121.5,165.5 C 121.5,164.833 121.167,164.5 120.5,164.5C 127.189,161.793 130.189,156.793 129.5,149.5C 130.302,150.952 130.802,152.618 131,154.5C 131.775,147.719 129.109,142.719 123,139.5C 122.333,138.833 122.333,138.167 123,137.5C 124.425,138.212 125.925,138.379 127.5,138C 126.396,139.131 126.729,139.965 128.5,140.5C 129.748,139.96 130.915,139.293 132,138.5C 133.085,139.293 134.252,139.96 135.5,140.5C 136.5,139.167 137.5,139.167 138.5,140.5C 139.192,139.975 139.692,139.308 140,138.5C 141.049,139.517 142.216,139.684 143.5,139C 142.167,137 142.167,135 143.5,133C 142.328,132.581 141.328,131.915 140.5,131C 140.728,130.601 141.062,130.435 141.5,130.5C 150.679,134.747 157.012,132.08 160.5,122.5C 164.608,124.102 166.941,122.602 167.5,118C 167.355,117.228 167.022,116.561 166.5,116C 168.641,114.109 170.974,113.609 173.5,114.5C 174.652,112.182 176.319,110.348 178.5,109C 173.954,108.19 173.62,106.857 177.5,105C 176.376,104.751 175.376,104.251 174.5,103.5C 176.279,101.807 176.779,99.8071 176,97.5C 174.316,99.4594 172.316,99.4594 170,97.5C 169.876,95.0643 170.376,92.731 171.5,90.5C 173.484,90.3832 175.15,91.0499 176.5,92.5C 176.906,91.4425 176.906,90.1092 176.5,88.5C 174.897,88.6882 173.563,88.1882 172.5,87C 172.833,86.6667 173.167,86.3333 173.5,86C 172.687,84.6861 171.687,83.5195 170.5,82.5C 170.709,81.914 171.043,81.414 171.5,81C 169.546,81.4531 167.713,81.6198 166,81.5C 165.454,76.891 162.954,74.0576 158.5,73C 156.665,72.0723 156.332,70.9056 157.5,69.5C 154.176,68.1724 151.176,66.339 148.5,64C 149.167,63.6667 149.833,63.3333 150.5,63C 147.261,62.2975 144.595,61.2975 142.5,60C 144.271,59.4646 144.604,58.6313 143.5,57.5C 142.5,58.1667 141.5,58.8333 140.5,59.5C 140.264,58.7528 139.93,57.9195 139.5,57C 138.24,55.887 137.073,55.7203 136,56.5C 133.679,53.7884 131.345,53.455 129,55.5C 127.216,52.9974 125.549,52.9974 124,55.5C 122.383,54.4642 122.216,53.2975 123.5,52C 122.333,50.8333 121.167,49.6667 120,48.5C 119.493,49.9961 119.993,51.1627 121.5,52C 119.782,52.346 118.115,52.846 116.5,53.5C 113.833,52.5 113.833,51.5 116.5,50.5C 114.157,49.2747 112.323,49.9414 111,52.5C 110.383,51.5509 110.549,50.7175 111.5,50C 110.552,49.5172 109.552,49.3505 108.5,49.5C 108.671,52.7973 108.005,53.1306 106.5,50.5C 107.919,48.8734 107.586,48.3734 105.5,49C 104.663,50.0113 104.33,51.1779 104.5,52.5C 103.167,52.5 101.833,52.5 100.5,52.5C 100.34,56.2364 99.5066,56.2364 98,52.5C 96.6012,53.2266 95.1012,53.7266 93.5,54C 92.1667,54.6667 92.1667,55.3333 93.5,56C 88.1975,57.0041 83.5309,59.8374 79.5,64.5C 78.8076,63.9747 78.3076,63.3081 78,62.5C 75.8913,63.0353 75.3913,64.0353 76.5,65.5C 75.0934,69.1158 73.0934,69.4492 70.5,66.5C 69.4763,67.8532 68.143,68.5198 66.5,68.5C 66.33,69.8221 66.6634,70.9887 67.5,72C 65.6874,71.9536 64.0207,72.1203 62.5,72.5C 62.1667,72.8333 61.8333,73.1667 61.5,73.5C 62.376,74.2508 63.376,74.7508 64.5,75C 62.6241,76.0173 60.6241,76.8506 58.5,77.5C 58.7093,78.086 59.0426,78.586 59.5,79C 57.6817,82.1618 55.3483,84.8284 52.5,87C 53.3802,88.3561 53.7135,89.8561 53.5,91.5C 52.0222,91.238 50.6888,91.5713 49.5,92.5C 50.4347,95.0595 49.6013,95.7262 47,94.5C 46.4926,95.9961 46.9926,97.1627 48.5,98C 46.1606,99.9893 44.8273,102.489 44.5,105.5C 46.1238,105.64 47.2904,104.973 48,103.5C 48.1667,104 48.3333,104.5 48.5,105C 47.1667,106.333 45.8333,107.667 44.5,109C 46.1445,110.032 46.4779,111.199 45.5,112.5C 45.7265,116.179 47.2265,119.179 50,121.5C 50.3333,120.833 50.6667,120.167 51,119.5C 52.5,121.667 54,123.833 55.5,126C 55.1667,126.333 54.8333,126.667 54.5,127C 56.3921,127.973 58.3921,128.64 60.5,129C 59.7203,130.073 59.887,131.24 61,132.5C 61.3333,131.5 61.6667,130.5 62,129.5C 62.6419,131.762 63.4752,133.929 64.5,136C 62.9675,139.719 60.8008,140.552 58,138.5C 57.6667,139.167 57.3333,139.833 57,140.5C 55.5064,139.253 54.0064,139.253 52.5,140.5C 54.0777,141.298 55.7444,141.798 57.5,142C 56.552,142.483 55.552,142.649 54.5,142.5C 51.9407,142.802 49.6074,142.468 47.5,141.5C 44.6417,140.834 41.6417,140.167 38.5,139.5C 39.7287,138.719 41.062,138.219 42.5,138C 40.9512,136.786 39.7845,135.286 39,133.5C 38.043,135.709 36.8764,135.543 35.5,133C 37.3249,131.534 37.8249,129.701 37,127.5C 35.8687,128.604 35.0354,128.271 34.5,126.5C 34.4793,124.398 34.8126,122.232 35.5,120C 32.5836,119.173 31.9169,117.506 33.5,115C 31.1747,113.548 31.1747,111.881 33.5,110C 32.4258,109.261 31.7591,108.261 31.5,107C 32.6155,105.765 32.6155,104.598 31.5,103.5C 33.7697,102.407 34.103,100.907 32.5,99C 35.2053,96.0796 36.8719,92.5796 37.5,88.5C 38.4255,89.6405 39.2588,89.6405 40,88.5C 40.5573,86.3853 41.3906,84.3853 42.5,82.5C 46.2983,76.8661 50.2983,71.3661 54.5,66C 59.8974,62.6798 64.8974,58.8464 69.5,54.5C 74.9401,52.3092 80.2734,49.9759 85.5,47.5C 87.0528,45.228 89.2195,43.8947 92,43.5C 92.3333,43.8333 92.6667,44.1667 93,44.5C 92.1994,40.9786 93.5327,39.9786 97,41.5C 99.9622,40.0134 103.129,39.0134 106.5,38.5C 109.392,39.8527 111.892,39.186 114,36.5C 116.271,38.4337 118.271,38.4337 120,36.5C 123.463,37.2876 126.463,38.9543 129,41.5C 130.893,42.3266 133.059,42.3266 135.5,41.5C 135.833,41.6667 136.167,41.8333 136.5,42C 134.343,43.0847 134.176,44.2513 136,45.5C 139.791,44.5525 142.791,45.8859 145,49.5C 145.333,49.1667 145.667,48.8333 146,48.5C 149.667,51.8333 153.333,55.1667 157,58.5C 157.604,56.3143 158.77,56.1476 160.5,58C 160.982,59.0084 161.148,60.175 161,61.5C 162.049,60.4829 163.216,60.3162 164.5,61C 165.859,63.3336 167.693,65.1669 170,66.5C 170.333,66.1667 170.667,65.8333 171,65.5C 172.272,68.2224 174.439,69.5557 177.5,69.5C 178.314,74.2236 180.648,78.057 184.5,81C 184.043,81.414 183.709,81.914 183.5,82.5C 185.971,86.0749 187.971,89.9082 189.5,94C 189.355,94.772 189.022,95.4387 188.5,96C 189.678,96.9669 191.011,97.4669 192.5,97.5C 192.291,98.086 191.957,98.586 191.5,99C 194.741,103.824 194.741,107.824 191.5,111C 192.451,111.718 192.617,112.551 192,113.5C 190.605,112.185 189.605,112.519 189,114.5C 188.113,117.567 187.446,120.567 187,123.5C 185.591,125.884 183.924,127.217 182,127.5C 181.505,129.473 181.338,131.473 181.5,133.5C 180.167,133.5 178.833,133.5 177.5,133.5C 177.657,134.873 177.49,136.207 177,137.5C 175.865,137.727 174.698,138.06 173.5,138.5C 174.811,139.258 175.311,140.258 175,141.5C 173.16,140.167 172.66,140.334 173.5,142C 171.069,142.295 169.236,143.462 168,145.5C 166.413,144.273 165.079,144.606 164,146.5C 162.16,145.167 161.66,145.334 162.5,147C 161.228,148.307 160.228,149.807 159.5,151.5C 158.833,150.5 158.167,149.5 157.5,148.5C 156.702,150.078 156.202,151.744 156,153.5C 155.346,152.304 154.846,152.304 154.5,153.5C 155.186,155.064 155.019,156.731 154,158.5C 153.259,159.641 152.425,159.641 151.5,158.5C 150.614,159.325 150.281,160.325 150.5,161.5C 148.599,161.433 146.766,161.767 145,162.5C 142.626,164.599 139.959,166.266 137,167.5C 135.333,166.167 133.667,166.167 132,167.5C 131.667,166.833 131.333,166.167 131,165.5C 128.99,166.848 126.99,168.182 125,169.5C 123.829,168.66 122.662,167.827 121.5,167C 124.097,166.221 124.097,165.721 121.5,165.5 Z"/></g>
<g><path style="opacity:1" fill="#e55945" d="M 44.5,22.5 C 43.3643,31.0884 43.1977,39.7551 44,48.5C 45.7575,44.997 47.5908,41.6636 49.5,38.5C 50.8221,38.33 51.9887,38.6634 53,39.5C 54.0748,37.425 55.7415,36.0917 58,35.5C 60.8644,35.0433 63.6978,34.71 66.5,34.5C 68.1667,35.8333 69.8333,37.1667 71.5,38.5C 71.67,39.8221 71.3366,40.9887 70.5,42C 60.0471,49.2869 50.7138,57.7869 42.5,67.5C 41.8497,52.1294 42.5163,37.1294 44.5,22.5 Z"/></g>
<g><path style="opacity:1" fill="#e45643" d="M 183.5,22.5 C 184.5,22.5 185.5,22.5 186.5,22.5C 186.176,29.3543 186.509,36.021 187.5,42.5C 187.5,44.8333 187.5,47.1667 187.5,49.5C 187.822,55.358 187.489,61.0247 186.5,66.5C 178.413,55.5792 168.58,46.5792 157,39.5C 156.308,38.5632 156.475,37.8966 157.5,37.5C 162.812,38.7121 168.145,39.8787 173.5,41C 175.184,45.5874 178.35,47.4207 183,46.5C 184.216,48.962 184.882,51.6287 185,54.5C 185.167,49.3333 185.333,44.1667 185.5,39C 185.451,33.2559 184.784,27.7559 183.5,22.5 Z"/></g>
<g><path style="opacity:1" fill="#fea53b" d="M 160.5,122.5 C 163.31,111.961 159.976,104.128 150.5,99C 143.211,98.9109 138.378,102.411 136,109.5C 134.074,117.607 135.908,124.607 141.5,130.5C 141.062,130.435 140.728,130.601 140.5,131C 141.328,131.915 142.328,132.581 143.5,133C 142.167,135 142.167,137 143.5,139C 142.216,139.684 141.049,139.517 140,138.5C 139.692,139.308 139.192,139.975 138.5,140.5C 137.5,139.167 136.5,139.167 135.5,140.5C 134.252,139.96 133.085,139.293 132,138.5C 130.915,139.293 129.748,139.96 128.5,140.5C 126.729,139.965 126.396,139.131 127.5,138C 125.925,138.379 124.425,138.212 123,137.5C 122.333,138.167 122.333,138.833 123,139.5C 129.109,142.719 131.775,147.719 131,154.5C 130.802,152.618 130.302,150.952 129.5,149.5C 127.982,144.483 124.648,141.316 119.5,140C 115.833,139.333 112.167,139.333 108.5,140C 105.894,140.792 103.894,142.292 102.5,144.5C 101.094,144.973 100.427,145.973 100.5,147.5C 99.5269,149.948 99.1936,152.615 99.5,155.5C 99.19,156.738 98.69,156.738 98,155.5C 99.1747,142.957 98.1747,142.623 95,154.5C 93.7163,153.428 93.3829,152.095 94,150.5C 92.6054,151.815 91.6054,151.481 91,149.5C 89.0892,151.342 87.0892,153.009 85,154.5C 84.5172,153.552 84.3505,152.552 84.5,151.5C 82.6693,152.052 81.0026,152.052 79.5,151.5C 79.1121,149.641 79.1121,147.641 79.5,145.5C 77.7408,144.246 76.2408,144.579 75,146.5C 74.7811,145.062 74.2811,143.729 73.5,142.5C 70.0037,143.478 69.6704,142.644 72.5,140C 69.4131,138.007 67.2464,138.507 66,141.5C 65.9152,139.915 65.7486,138.582 65.5,137.5C 63.4348,139.905 61.1015,141.905 58.5,143.5C 56.901,143.768 55.5676,143.434 54.5,142.5C 55.552,142.649 56.552,142.483 57.5,142C 55.7444,141.798 54.0777,141.298 52.5,140.5C 54.0064,139.253 55.5064,139.253 57,140.5C 57.3333,139.833 57.6667,139.167 58,138.5C 60.8008,140.552 62.9675,139.719 64.5,136C 63.4752,133.929 62.6419,131.762 62,129.5C 61.6667,130.5 61.3333,131.5 61,132.5C 59.887,131.24 59.7203,130.073 60.5,129C 58.3921,128.64 56.3921,127.973 54.5,127C 54.8333,126.667 55.1667,126.333 55.5,126C 54,123.833 52.5,121.667 51,119.5C 50.6667,120.167 50.3333,120.833 50,121.5C 47.2265,119.179 45.7265,116.179 45.5,112.5C 46.4779,111.199 46.1445,110.032 44.5,109C 45.8333,107.667 47.1667,106.333 48.5,105C 48.3333,104.5 48.1667,104 48,103.5C 47.2904,104.973 46.1238,105.64 44.5,105.5C 44.8273,102.489 46.1606,99.9893 48.5,98C 46.9926,97.1627 46.4926,95.9961 47,94.5C 49.6013,95.7262 50.4347,95.0595 49.5,92.5C 50.6888,91.5713 52.0222,91.238 53.5,91.5C 53.7135,89.8561 53.3802,88.3561 52.5,87C 55.3483,84.8284 57.6817,82.1618 59.5,79C 59.0426,78.586 58.7093,78.086 58.5,77.5C 60.6241,76.8506 62.6241,76.0173 64.5,75C 63.376,74.7508 62.376,74.2508 61.5,73.5C 61.8333,73.1667 62.1667,72.8333 62.5,72.5C 64.0207,72.1203 65.6874,71.9536 67.5,72C 66.6634,70.9887 66.33,69.8221 66.5,68.5C 68.143,68.5198 69.4763,67.8532 70.5,66.5C 73.0934,69.4492 75.0934,69.1158 76.5,65.5C 75.3913,64.0353 75.8913,63.0353 78,62.5C 78.3076,63.3081 78.8076,63.9747 79.5,64.5C 83.5309,59.8374 88.1975,57.0041 93.5,56C 92.1667,55.3333 92.1667,54.6667 93.5,54C 95.1012,53.7266 96.6012,53.2266 98,52.5C 99.5066,56.2364 100.34,56.2364 100.5,52.5C 101.833,52.5 103.167,52.5 104.5,52.5C 104.33,51.1779 104.663,50.0113 105.5,49C 107.586,48.3734 107.919,48.8734 106.5,50.5C 108.005,53.1306 108.671,52.7973 108.5,49.5C 109.552,49.3505 110.552,49.5172 111.5,50C 110.549,50.7175 110.383,51.5509 111,52.5C 112.323,49.9414 114.157,49.2747 116.5,50.5C 113.833,51.5 113.833,52.5 116.5,53.5C 118.115,52.846 119.782,52.346 121.5,52C 119.993,51.1627 119.493,49.9961 120,48.5C 121.167,49.6667 122.333,50.8333 123.5,52C 122.216,53.2975 122.383,54.4642 124,55.5C 125.549,52.9974 127.216,52.9974 129,55.5C 131.345,53.455 133.679,53.7884 136,56.5C 137.073,55.7203 138.24,55.887 139.5,57C 139.93,57.9195 140.264,58.7528 140.5,59.5C 141.5,58.8333 142.5,58.1667 143.5,57.5C 144.604,58.6313 144.271,59.4646 142.5,60C 144.595,61.2975 147.261,62.2975 150.5,63C 149.833,63.3333 149.167,63.6667 148.5,64C 151.176,66.339 154.176,68.1724 157.5,69.5C 156.332,70.9056 156.665,72.0723 158.5,73C 162.954,74.0576 165.454,76.891 166,81.5C 167.713,81.6198 169.546,81.4531 171.5,81C 171.043,81.414 170.709,81.914 170.5,82.5C 171.687,83.5195 172.687,84.6861 173.5,86C 173.167,86.3333 172.833,86.6667 172.5,87C 173.563,88.1882 174.897,88.6882 176.5,88.5C 176.906,90.1092 176.906,91.4425 176.5,92.5C 175.15,91.0499 173.484,90.3832 171.5,90.5C 170.376,92.731 169.876,95.0643 170,97.5C 172.316,99.4594 174.316,99.4594 176,97.5C 176.779,99.8071 176.279,101.807 174.5,103.5C 175.376,104.251 176.376,104.751 177.5,105C 173.62,106.857 173.954,108.19 178.5,109C 176.319,110.348 174.652,112.182 173.5,114.5C 170.974,113.609 168.641,114.109 166.5,116C 167.022,116.561 167.355,117.228 167.5,118C 166.941,122.602 164.608,124.102 160.5,122.5 Z"/></g>
<g><path style="opacity:1" fill="#e9743e" d="M 44.5,22.5 C 42.5163,37.1294 41.8497,52.1294 42.5,67.5C 41.4789,67.1007 41.1455,65.7674 41.5,63.5C 41.5,49.5 41.5,35.5 41.5,21.5C 42.791,21.2627 43.791,21.596 44.5,22.5 Z"/></g>
<g><path style="opacity:1" fill="#eeb883" d="M 27.5,50.5 C 28.4614,52.2646 28.7947,54.2646 28.5,56.5C 28.9157,61.4932 29.2491,66.4932 29.5,71.5C 27.8469,64.7382 27.1802,57.7382 27.5,50.5 Z"/></g>
<g><path style="opacity:1" fill="#f3c491" d="M 200.5,59.5 C 200.624,65.0687 199.957,70.402 198.5,75.5C 198.527,69.9494 199.194,64.6161 200.5,59.5 Z"/></g>
<g><path style="opacity:1" fill="#edbf93" d="M 198.5,75.5 C 198.425,78.2062 198.092,80.8728 197.5,83.5C 196.509,80.7559 196.843,78.0893 198.5,75.5 Z"/></g>
<g><path style="opacity:1" fill="#f5c595" d="M 30.5,77.5 C 32.3117,79.7134 32.6451,82.0467 31.5,84.5C 30.7814,82.2362 30.448,79.9029 30.5,77.5 Z"/></g>
<g><path style="opacity:1" fill="#ee9434" d="M 200.5,59.5 C 199.194,64.6161 198.527,69.9494 198.5,75.5C 196.843,78.0893 196.509,80.7559 197.5,83.5C 202.164,91.1823 205.498,99.5156 207.5,108.5C 208.141,114.358 209.141,120.025 210.5,125.5C 210.5,131.5 210.5,137.5 210.5,143.5C 206.167,143.5 201.833,143.5 197.5,143.5C 201.312,142.676 205.312,142.176 209.5,142C 205.179,141.501 200.846,141.334 196.5,141.5C 195.448,141.649 194.448,141.483 193.5,141C 196.833,140.667 200.167,140.333 203.5,140C 201.285,139.83 199.285,139.163 197.5,138C 197.884,135.227 199.217,132.56 201.5,130C 200.004,129.493 198.837,129.993 198,131.5C 197.5,131 197,130.5 196.5,130C 198.743,128.259 200.41,126.093 201.5,123.5C 201.263,120.937 200.763,120.937 200,123.5C 198.319,121.452 196.819,119.285 195.5,117C 196.759,116.077 198.092,115.243 199.5,114.5C 199.154,113.304 198.654,113.304 198,114.5C 197.833,113.833 197.667,113.167 197.5,112.5C 197.878,106.716 198.211,101.216 198.5,96C 197.667,95.1667 196.833,94.3333 196,93.5C 196.054,90.8094 194.887,88.9761 192.5,88C 193.345,86.4419 192.679,85.4419 190.5,85C 191.286,80.0425 189.62,75.8758 185.5,72.5C 188.584,71.5164 188.917,69.5164 186.5,66.5C 187.489,61.0247 187.822,55.358 187.5,49.5C 188.327,54.6509 188.827,59.9842 189,65.5C 189.192,63.4233 189.692,61.4233 190.5,59.5C 192.452,61.533 194.618,61.8663 197,60.5C 199.126,50.6661 200.126,40.6661 200,30.5C 200.5,40.1609 200.666,49.8276 200.5,59.5 Z"/></g>
<g><path style="opacity:1" fill="#ddb544" d="M 70.5,124.5 C 65.6463,115.893 66.9796,108.06 74.5,101C 78.4363,99.9135 82.4363,99.0801 86.5,98.5C 89.616,102.116 92.116,106.116 94,110.5C 96.6869,122.812 92.0202,130.478 80,133.5C 77.1808,133.007 74.6808,131.84 72.5,130C 70.8446,128.556 70.178,126.722 70.5,124.5 Z"/></g>
<g><path style="opacity:1" fill="#7f7230" d="M 70.5,108.5 C 69.8379,112.466 69.5045,116.466 69.5,120.5C 68.8418,119.207 68.5085,117.707 68.5,116C 68.4078,113.179 69.0744,110.679 70.5,108.5 Z"/></g>
<g><path style="opacity:1" fill="#1c1516" d="M 70.5,124.5 C 70.7678,122.901 70.4345,121.568 69.5,120.5C 69.5045,116.466 69.8379,112.466 70.5,108.5C 73.2042,102.316 77.8709,100.15 84.5,102C 92.5953,107.179 94.7619,114.346 91,123.5C 88.2038,129.967 83.3705,132.467 76.5,131C 74.2659,128.937 72.2659,126.771 70.5,124.5 Z"/></g>
<g><path style="opacity:1" fill="#dcdbdb" d="M 78.5,105.5 C 84.6426,106.026 85.9759,108.86 82.5,114C 77.5036,114.664 75.6703,112.498 77,107.5C 77.7172,106.956 78.2172,106.289 78.5,105.5 Z"/></g>
<g><path style="opacity:1" fill="#eabc8f" d="M 207.5,108.5 C 209.633,113.844 210.633,119.511 210.5,125.5C 209.141,120.025 208.141,114.358 207.5,108.5 Z"/></g>
<g><path style="opacity:1" fill="#cdb099" d="M 18.5,123.5 C 18.5,129.833 18.5,136.167 18.5,142.5C 18.5,142.833 18.5,143.167 18.5,143.5C 15.272,144.414 11.9387,144.747 8.5,144.5C 6.83333,144.5 5.16667,144.5 3.5,144.5C 7.69976,143.78 12.0331,143.114 16.5,142.5C 17.1668,136.012 17.8334,129.679 18.5,123.5 Z"/></g>
<g><path style="opacity:1" fill="#d2ac40" d="M 160.5,122.5 C 157.012,132.08 150.679,134.747 141.5,130.5C 135.908,124.607 134.074,117.607 136,109.5C 138.378,102.411 143.211,98.9109 150.5,99C 159.976,104.128 163.31,111.961 160.5,122.5 Z"/></g>
<g><path style="opacity:1" fill="#1a1415" d="M 143.5,101.5 C 156.225,100.736 161.392,106.736 159,119.5C 158.063,128.442 153.229,131.942 144.5,130C 140.529,128.12 138.363,124.953 138,120.5C 136.075,112.947 137.908,106.613 143.5,101.5 Z"/></g>
<g><path style="opacity:1" fill="#e1dfdf" d="M 147.5,105.5 C 152.984,105.481 154.65,107.981 152.5,113C 145.369,114.211 143.702,111.711 147.5,105.5 Z"/></g>
<g><path style="opacity:1" fill="#302327" d="M 18.5,143.5 C 35.0473,142.716 51.3806,144.049 67.5,147.5C 67.5,148.833 67.5,150.167 67.5,151.5C 51.0039,150.424 34.6706,150.424 18.5,151.5C 13.1563,151.666 7.82294,151.499 2.5,151C 1.94404,150.617 1.61071,150.117 1.5,149.5C 1.36899,148.761 1.53566,148.094 2,147.5C 4.55386,148.771 7.38719,149.438 10.5,149.5C 28.8334,148.506 47.1667,148.339 65.5,149C 59.8926,147.677 54.226,146.677 48.5,146C 34.9937,145.831 21.6604,145.331 8.5,144.5C 11.9387,144.747 15.272,144.414 18.5,143.5 Z"/></g>
<g><path style="opacity:1" fill="#f2523f" d="M 100.5,147.5 C 100.427,145.973 101.094,144.973 102.5,144.5C 102.56,145.043 102.893,145.376 103.5,145.5C 108.183,141.521 113.516,140.521 119.5,142.5C 126.371,148.018 126.038,153.184 118.5,158C 113.055,159.219 108.222,158.052 104,154.5C 103.586,154.957 103.086,155.291 102.5,155.5C 101.262,152.832 101.262,150.166 102.5,147.5C 102.03,146.537 101.363,146.537 100.5,147.5 Z"/></g>
<g><path style="opacity:1" fill="#edae38" d="M 196.5,141.5 C 200.846,141.334 205.179,141.501 209.5,142C 205.312,142.176 201.312,142.676 197.5,143.5C 192.414,143.626 187.414,144.293 182.5,145.5C 179.848,145.41 177.515,146.076 175.5,147.5C 173.589,148.075 171.922,149.075 170.5,150.5C 170.167,150.5 169.833,150.5 169.5,150.5C 170.961,147.745 173.295,145.912 176.5,145C 183.254,143.502 189.921,142.335 196.5,141.5 Z"/></g>
<g><path style="opacity:1" fill="#40312e" d="M 197.5,143.5 C 201.833,143.5 206.167,143.5 210.5,143.5C 214.182,143.335 217.848,143.501 221.5,144C 225.439,144.977 226.439,147.311 224.5,151C 219.511,151.499 214.511,151.666 209.5,151.5C 209.167,151.5 208.833,151.5 208.5,151.5C 202.5,151.5 196.5,151.5 190.5,151.5C 200.992,150.67 211.659,150.17 222.5,150C 208.154,149.255 193.82,149.421 179.5,150.5C 177.833,150.333 176.167,150.167 174.5,150C 176.175,149.015 177.842,148.181 179.5,147.5C 180.5,146.833 181.5,146.167 182.5,145.5C 187.414,144.293 192.414,143.626 197.5,143.5 Z"/></g>
<g><path style="opacity:1" fill="#3d2d28" d="M 3.5,144.5 C 5.16667,144.5 6.83333,144.5 8.5,144.5C 21.6604,145.331 34.9937,145.831 48.5,146C 54.226,146.677 59.8926,147.677 65.5,149C 47.1667,148.339 28.8334,148.506 10.5,149.5C 7.38719,149.438 4.55386,148.771 2,147.5C 1.53566,148.094 1.36899,148.761 1.5,149.5C 0.167401,147.176 0.834068,145.509 3.5,144.5 Z"/></g>
<g><path style="opacity:1" fill="#624628" d="M 182.5,145.5 C 181.5,146.167 180.5,146.833 179.5,147.5C 178.167,147.5 176.833,147.5 175.5,147.5C 177.515,146.076 179.848,145.41 182.5,145.5 Z"/></g>
<g><path style="opacity:1" fill="#1f1822" d="M 175.5,147.5 C 176.833,147.5 178.167,147.5 179.5,147.5C 177.842,148.181 176.175,149.015 174.5,150C 176.167,150.167 177.833,150.333 179.5,150.5C 193.82,149.421 208.154,149.255 222.5,150C 211.659,150.17 200.992,150.67 190.5,151.5C 185.737,151.226 181.07,151.559 176.5,152.5C 173.918,152.975 171.918,152.308 170.5,150.5C 171.922,149.075 173.589,148.075 175.5,147.5 Z"/></g>
<g><path style="opacity:1" fill="#dba638" d="M 47.5,141.5 C 49.6074,142.468 51.9407,142.802 54.5,142.5C 55.5676,143.434 56.901,143.768 58.5,143.5C 62.0145,143.879 65.3479,144.879 68.5,146.5C 70.4815,150.835 69.1481,153.169 64.5,153.5C 49.5134,152.716 34.5134,152.383 19.5,152.5C 19.5,151.833 19.1667,151.5 18.5,151.5C 34.6706,150.424 51.0039,150.424 67.5,151.5C 67.5,150.167 67.5,148.833 67.5,147.5C 51.3806,144.049 35.0473,142.716 18.5,143.5C 18.5,143.167 18.5,142.833 18.5,142.5C 28.0838,141.527 37.7504,141.194 47.5,141.5 Z"/></g>
<g><path style="opacity:1" fill="#f19632" d="M 19.5,152.5 C 34.5134,152.383 49.5134,152.716 64.5,153.5C 62.9498,154.457 59.9498,154.957 55.5,155C 57.8746,157.954 60.3746,158.12 63,155.5C 63.504,159.02 65.3374,161.52 68.5,163C 67.376,163.249 66.376,163.749 65.5,164.5C 69.4236,165.541 72.2569,167.874 74,171.5C 74.2492,170.376 74.7492,169.376 75.5,168.5C 75.9282,171.522 77.2615,174.022 79.5,176C 77.5269,178.015 75.8603,177.848 74.5,175.5C 73.646,176.522 72.646,177.355 71.5,178C 74.7887,179.695 78.122,179.862 81.5,178.5C 84.4835,181.326 87.8168,183.659 91.5,185.5C 86.3483,186.717 81.6816,185.717 77.5,182.5C 76.914,182.709 76.414,183.043 76,183.5C 71.0436,181.376 66.0436,179.376 61,177.5C 60.6667,177.833 60.3333,178.167 60,178.5C 58.738,176.697 57.0713,175.364 55,174.5C 54.5172,175.448 54.3505,176.448 54.5,177.5C 52.3337,177.421 50.3337,176.754 48.5,175.5C 46.8791,176.705 45.5458,176.539 44.5,175C 44.8333,174.667 45.1667,174.333 45.5,174C 44.552,173.517 43.552,173.351 42.5,173.5C 48.0064,171.872 53.6731,170.372 59.5,169C 60.6721,168.581 61.6721,167.915 62.5,167C 62.2716,166.601 61.9382,166.435 61.5,166.5C 61.5,165.5 61.5,164.5 61.5,163.5C 61.9382,163.565 62.2716,163.399 62.5,163C 59.9615,161.953 57.2948,161.453 54.5,161.5C 44.3323,162.428 34.3323,164.094 24.5,166.5C 23.5139,164.574 22.5139,162.574 21.5,160.5C 21.405,158.214 20.7384,156.214 19.5,154.5C 19.5,153.833 19.5,153.167 19.5,152.5 Z"/></g>
<g><path style="opacity:1" fill="#936f2d" d="M 169.5,150.5 C 169.833,150.5 170.167,150.5 170.5,150.5C 171.918,152.308 173.918,152.975 176.5,152.5C 174.735,153.461 172.735,153.795 170.5,153.5C 169.596,152.791 169.263,151.791 169.5,150.5 Z"/></g>
<g><path style="opacity:1" fill="#dfa335" d="M 190.5,151.5 C 196.5,151.5 202.5,151.5 208.5,151.5C 208.5,151.833 208.5,152.167 208.5,152.5C 197.495,153.027 186.495,153.693 175.5,154.5C 173.631,154.493 171.964,154.16 170.5,153.5C 172.735,153.795 174.735,153.461 176.5,152.5C 181.07,151.559 185.737,151.226 190.5,151.5 Z"/></g>
<g><path style="opacity:1" fill="#e69f5b" d="M 208.5,151.5 C 208.833,151.5 209.167,151.5 209.5,151.5C 208.776,154.843 207.943,158.176 207,161.5C 206.617,162.056 206.117,162.389 205.5,162.5C 206.265,159.904 206.599,157.237 206.5,154.5C 205.127,154.657 203.793,154.49 202.5,154C 204.708,153.809 206.708,153.309 208.5,152.5C 208.5,152.167 208.5,151.833 208.5,151.5 Z"/></g>
<g><path style="opacity:1" fill="#e64235" d="M 129.5,149.5 C 130.189,156.793 127.189,161.793 120.5,164.5C 119.167,164.5 117.833,164.5 116.5,164.5C 115.167,164.5 113.833,164.5 112.5,164.5C 112.167,164.5 111.833,164.5 111.5,164.5C 106.339,163 102.339,160 99.5,155.5C 99.1936,152.615 99.5269,149.948 100.5,147.5C 101.363,146.537 102.03,146.537 102.5,147.5C 101.262,150.166 101.262,152.832 102.5,155.5C 103.086,155.291 103.586,154.957 104,154.5C 108.222,158.052 113.055,159.219 118.5,158C 126.038,153.184 126.371,148.018 119.5,142.5C 113.516,140.521 108.183,141.521 103.5,145.5C 102.893,145.376 102.56,145.043 102.5,144.5C 103.894,142.292 105.894,140.792 108.5,140C 112.167,139.333 115.833,139.333 119.5,140C 124.648,141.316 127.982,144.483 129.5,149.5 Z"/></g>
<g><path style="opacity:1" fill="#f0cdad" d="M 19.5,154.5 C 20.7384,156.214 21.405,158.214 21.5,160.5C 19.7202,159.01 19.0535,157.01 19.5,154.5 Z"/></g>
<g><path style="opacity:1" fill="#ebaa33" d="M 61.5,163.5 C 50.4563,162.902 39.7896,164.235 29.5,167.5C 27.8333,167.5 26.1667,167.5 24.5,167.5C 24.5,167.167 24.5,166.833 24.5,166.5C 34.3323,164.094 44.3323,162.428 54.5,161.5C 57.2948,161.453 59.9615,161.953 62.5,163C 62.2716,163.399 61.9382,163.565 61.5,163.5 Z"/></g>
<g><path style="opacity:1" fill="#644627" d="M 167.5,163.5 C 173.358,163.178 179.025,163.511 184.5,164.5C 179.156,164.334 173.823,164.501 168.5,165C 169.056,165.383 169.389,165.883 169.5,166.5C 167.952,166.179 167.285,165.179 167.5,163.5 Z"/></g>
<g><path style="opacity:1" fill="#e7a936" d="M 204.5,165.5 C 204.5,165.833 204.5,166.167 204.5,166.5C 202.5,166.5 200.5,166.5 198.5,166.5C 194.036,165.356 189.37,164.69 184.5,164.5C 179.025,163.511 173.358,163.178 167.5,163.5C 169.634,161.967 172.134,161.3 175,161.5C 184.94,162.23 194.774,163.563 204.5,165.5 Z"/></g>
<g><path style="opacity:1" fill="#362422" d="M 61.5,163.5 C 61.5,164.5 61.5,165.5 61.5,166.5C 55.2258,168.088 48.8924,169.422 42.5,170.5C 46.303,168.501 50.9697,167.001 56.5,166C 48.4365,165.937 40.4365,166.77 32.5,168.5C 31.2739,168.48 30.2739,168.147 29.5,167.5C 39.7896,164.235 50.4563,162.902 61.5,163.5 Z"/></g>
<g><path style="opacity:1" fill="#f89f36" d="M 99.5,155.5 C 102.339,160 106.339,163 111.5,164.5C 112.095,175.217 107.095,179.384 96.5,177C 91.8345,175.334 87.5011,173.167 83.5,170.5C 81.8828,169.962 80.2161,169.629 78.5,169.5C 78.1496,172.453 79.1496,174.787 81.5,176.5C 81.5,177.167 81.5,177.833 81.5,178.5C 78.122,179.862 74.7887,179.695 71.5,178C 72.646,177.355 73.646,176.522 74.5,175.5C 75.8603,177.848 77.5269,178.015 79.5,176C 77.2615,174.022 75.9282,171.522 75.5,168.5C 74.7492,169.376 74.2492,170.376 74,171.5C 72.2569,167.874 69.4236,165.541 65.5,164.5C 66.376,163.749 67.376,163.249 68.5,163C 65.3374,161.52 63.504,159.02 63,155.5C 60.3746,158.12 57.8746,157.954 55.5,155C 59.9498,154.957 62.9498,154.457 64.5,153.5C 69.1481,153.169 70.4815,150.835 68.5,146.5C 65.3479,144.879 62.0145,143.879 58.5,143.5C 61.1015,141.905 63.4348,139.905 65.5,137.5C 65.7486,138.582 65.9152,139.915 66,141.5C 67.2464,138.507 69.4131,138.007 72.5,140C 69.6704,142.644 70.0037,143.478 73.5,142.5C 74.2811,143.729 74.7811,145.062 75,146.5C 76.2408,144.579 77.7408,144.246 79.5,145.5C 79.1121,147.641 79.1121,149.641 79.5,151.5C 81.0026,152.052 82.6693,152.052 84.5,151.5C 84.3505,152.552 84.5172,153.552 85,154.5C 87.0892,153.009 89.0892,151.342 91,149.5C 91.6054,151.481 92.6054,151.815 94,150.5C 93.3829,152.095 93.7163,153.428 95,154.5C 98.1747,142.623 99.1747,142.957 98,155.5C 98.69,156.738 99.19,156.738 99.5,155.5 Z"/></g>
<g><path style="opacity:1" fill="#855c28" d="M 146.5,166.5 C 146.56,165.957 146.893,165.624 147.5,165.5C 148.788,167.299 148.788,168.965 147.5,170.5C 147.768,168.901 147.434,167.568 146.5,166.5 Z"/></g>
<g><path style="opacity:1" fill="#3c2b26" d="M 198.5,166.5 C 200.5,166.5 202.5,166.5 204.5,166.5C 204.5,166.833 204.5,167.167 204.5,167.5C 204.389,168.117 204.056,168.617 203.5,169C 205.291,169.415 206.624,170.415 207.5,172C 204.833,172.667 202.167,172.667 199.5,172C 190.465,170.158 181.465,168.158 172.5,166C 179.737,165.367 186.904,165.867 194,167.5C 195.707,167.492 197.207,167.158 198.5,166.5 Z"/></g>
<g><path style="opacity:1" fill="#cb9733" d="M 61.5,166.5 C 61.9382,166.435 62.2716,166.601 62.5,167C 61.6721,167.915 60.6721,168.581 59.5,169C 53.6731,170.372 48.0064,171.872 42.5,173.5C 39.1667,173.5 35.8333,173.5 32.5,173.5C 35.8333,172.5 39.1667,171.5 42.5,170.5C 48.8924,169.422 55.2258,168.088 61.5,166.5 Z"/></g>
<g><path style="opacity:1" fill="#b0abaa" d="M 214.5,169.5 C 217.01,169.054 219.01,169.72 220.5,171.5C 218.214,171.405 216.214,170.738 214.5,169.5 Z"/></g>
<g><path style="opacity:1" fill="#ea8f2e" d="M 185.5,173.5 C 185.494,174.417 186.494,174.917 188.5,175C 183.789,176.175 179.122,177.675 174.5,179.5C 172.064,178.109 171.398,178.609 172.5,181C 168.96,181.734 165.627,182.901 162.5,184.5C 161.232,183.572 159.899,183.405 158.5,184C 156.349,185.774 154.016,187.274 151.5,188.5C 149.482,187.187 148.315,187.853 148,190.5C 145.795,190.912 143.462,190.912 141,190.5C 138.113,190.903 135.779,192.236 134,194.5C 133.692,193.692 133.192,193.025 132.5,192.5C 131.402,193.615 130.235,193.615 129,192.5C 127.347,192.82 126.347,193.82 126,195.5C 125.044,194.106 123.711,193.439 122,193.5C 120,194.167 118,194.833 116,195.5C 114.774,195.355 113.607,195.022 112.5,194.5C 112.167,195.167 111.833,195.833 111.5,196.5C 110.5,195.833 109.5,195.167 108.5,194.5C 107.808,195.025 107.308,195.692 107,196.5C 103.667,195.167 100.333,193.833 97,192.5C 96.586,192.957 96.086,193.291 95.5,193.5C 92.5023,191.468 89.3356,190.801 86,191.5C 83.2144,189.338 80.2144,188.671 77,189.5C 73.7242,187.672 70.3909,187.006 67,187.5C 56.7318,183.642 46.7318,179.309 37,174.5C 34.813,174.788 32.6463,175.122 30.5,175.5C 29.8333,175.5 29.1667,175.5 28.5,175.5C 29.1834,173.824 30.5168,173.157 32.5,173.5C 35.8333,173.5 39.1667,173.5 42.5,173.5C 43.552,173.351 44.552,173.517 45.5,174C 45.1667,174.333 44.8333,174.667 44.5,175C 45.5458,176.539 46.8791,176.705 48.5,175.5C 50.3337,176.754 52.3337,177.421 54.5,177.5C 54.3505,176.448 54.5172,175.448 55,174.5C 57.0713,175.364 58.738,176.697 60,178.5C 60.3333,178.167 60.6667,177.833 61,177.5C 66.0436,179.376 71.0436,181.376 76,183.5C 76.414,183.043 76.914,182.709 77.5,182.5C 81.6816,185.717 86.3483,186.717 91.5,185.5C 99.6356,187.566 107.302,186.566 114.5,182.5C 120.387,186.694 126.72,187.528 133.5,185C 136.994,183.311 140.328,181.478 143.5,179.5C 148.321,179.965 151.487,177.965 153,173.5C 153.333,173.833 153.667,174.167 154,174.5C 157.521,172.995 160.521,170.662 163,167.5C 164.028,169.361 165.528,170.695 167.5,171.5C 173.787,170.23 179.787,170.897 185.5,173.5 Z"/></g>
<g><path style="opacity:1" fill="#3a2e2e" d="M 184.5,164.5 C 189.37,164.69 194.036,165.356 198.5,166.5C 197.207,167.158 195.707,167.492 194,167.5C 186.904,165.867 179.737,165.367 172.5,166C 181.465,168.158 190.465,170.158 199.5,172C 202.167,172.667 204.833,172.667 207.5,172C 206.624,170.415 205.291,169.415 203.5,169C 204.056,168.617 204.389,168.117 204.5,167.5C 208.122,167.322 211.456,167.989 214.5,169.5C 216.214,170.738 218.214,171.405 220.5,171.5C 225.022,171.837 226.355,174.003 224.5,178C 218.088,177.984 211.755,177.15 205.5,175.5C 203.562,173.837 201.228,173.171 198.5,173.5C 198.167,173.5 197.833,173.5 197.5,173.5C 187.812,172.053 178.479,169.719 169.5,166.5C 169.389,165.883 169.056,165.383 168.5,165C 173.823,164.501 179.156,164.334 184.5,164.5 Z"/></g>
<g><path style="opacity:1" fill="#3a2d2e" d="M 42.5,170.5 C 39.1667,171.5 35.8333,172.5 32.5,173.5C 30.5168,173.157 29.1834,173.824 28.5,175.5C 27.5,175.5 26.5,175.5 25.5,175.5C 22.5718,175.565 19.9052,176.232 17.5,177.5C 11.7913,179.505 5.7913,180.505 -0.5,180.5C -0.5,178.833 -0.5,177.167 -0.5,175.5C 7.65349,172.106 15.9868,169.439 24.5,167.5C 26.1667,167.5 27.8333,167.5 29.5,167.5C 30.2739,168.147 31.2739,168.48 32.5,168.5C 40.4365,166.77 48.4365,165.937 56.5,166C 50.9697,167.001 46.303,168.501 42.5,170.5 Z"/></g>
<g><path style="opacity:1" fill="#34201d" d="M 83.5,170.5 C 90.4835,179.552 99.1502,181.719 109.5,177C 111.607,175.736 112.607,173.903 112.5,171.5C 113.819,173.605 113.486,175.605 111.5,177.5C 100.592,183.327 90.7582,181.66 82,172.5C 82.1953,174.745 83.3619,176.578 85.5,178C 88.5961,180.215 91.9295,181.881 95.5,183C 94.552,183.483 93.552,183.649 92.5,183.5C 88.0478,182.377 84.3811,180.044 81.5,176.5C 79.1496,174.787 78.1496,172.453 78.5,169.5C 80.2161,169.629 81.8828,169.962 83.5,170.5 Z"/></g>
<g><path style="opacity:1" fill="#e48a2b" d="M 185.5,173.5 C 187.415,173.216 189.081,173.549 190.5,174.5C 187.806,178.036 184.806,181.369 181.5,184.5C 177.32,185.177 173.487,187.177 170,190.5C 169.667,189.833 169.333,189.167 169,188.5C 167,189.833 165,191.167 163,192.5C 162.667,192.167 162.333,191.833 162,191.5C 159.205,193.646 156.039,194.813 152.5,195C 151.333,195.5 150.5,196.333 150,197.5C 149.275,196.941 148.442,196.608 147.5,196.5C 141.841,199.251 135.841,201.084 129.5,202C 125.318,204.12 125.652,205.453 130.5,206C 125.177,206.499 119.844,206.666 114.5,206.5C 114.36,204.876 115.027,203.71 116.5,203C 112.901,203.368 109.401,203.535 106,203.5C 102.017,201.283 98.0172,199.949 94,199.5C 93,200.167 92,200.833 91,201.5C 85.5347,199.678 80.0347,197.845 74.5,196C 73.8742,195.25 73.3742,194.416 73,193.5C 72.2753,194.059 71.4419,194.392 70.5,194.5C 63.0637,191.327 54.7304,188.494 45.5,186C 41.677,180.655 36.677,177.155 30.5,175.5C 32.6463,175.122 34.813,174.788 37,174.5C 46.7318,179.309 56.7318,183.642 67,187.5C 70.3909,187.006 73.7242,187.672 77,189.5C 80.2144,188.671 83.2144,189.338 86,191.5C 89.3356,190.801 92.5023,191.468 95.5,193.5C 96.086,193.291 96.586,192.957 97,192.5C 100.333,193.833 103.667,195.167 107,196.5C 107.308,195.692 107.808,195.025 108.5,194.5C 109.5,195.167 110.5,195.833 111.5,196.5C 111.833,195.833 112.167,195.167 112.5,194.5C 113.607,195.022 114.774,195.355 116,195.5C 118,194.833 120,194.167 122,193.5C 123.711,193.439 125.044,194.106 126,195.5C 126.347,193.82 127.347,192.82 129,192.5C 130.235,193.615 131.402,193.615 132.5,192.5C 133.192,193.025 133.692,193.692 134,194.5C 135.779,192.236 138.113,190.903 141,190.5C 143.462,190.912 145.795,190.912 148,190.5C 148.315,187.853 149.482,187.187 151.5,188.5C 154.016,187.274 156.349,185.774 158.5,184C 159.899,183.405 161.232,183.572 162.5,184.5C 165.627,182.901 168.96,181.734 172.5,181C 171.398,178.609 172.064,178.109 174.5,179.5C 179.122,177.675 183.789,176.175 188.5,175C 186.494,174.917 185.494,174.417 185.5,173.5 Z"/></g>
<g><path style="opacity:1" fill="#7f7b81" d="M 198.5,174.5 C 198.5,174.167 198.5,173.833 198.5,173.5C 201.228,173.171 203.562,173.837 205.5,175.5C 203.139,175.326 200.806,174.993 198.5,174.5 Z"/></g>
<g><path style="opacity:1" fill="#d3a237" d="M 111.5,164.5 C 111.833,164.5 112.167,164.5 112.5,164.5C 112.5,166.833 112.5,169.167 112.5,171.5C 112.607,173.903 111.607,175.736 109.5,177C 99.1502,181.719 90.4835,179.552 83.5,170.5C 87.5011,173.167 91.8345,175.334 96.5,177C 107.095,179.384 112.095,175.217 111.5,164.5 Z"/></g>
<g><path style="opacity:1" fill="#9e9694" d="M 25.5,175.5 C 23.1617,177.04 20.4951,177.706 17.5,177.5C 19.9052,176.232 22.5718,175.565 25.5,175.5 Z"/></g>
<g><path style="opacity:1" fill="#e2a636" d="M 116.5,164.5 C 117.833,164.5 119.167,164.5 120.5,164.5C 121.167,164.5 121.5,164.833 121.5,165.5C 120.504,165.414 119.671,165.748 119,166.5C 117.977,170.232 118.81,173.399 121.5,176C 127.226,177.104 132.56,176.104 137.5,173C 139.746,170.248 142.412,168.082 145.5,166.5C 139.693,175.611 131.36,179.444 120.5,178C 116.904,174.265 115.571,169.765 116.5,164.5 Z"/></g>
<g><path style="opacity:1" fill="#dd872e" d="M 197.5,173.5 C 197.833,173.5 198.167,173.5 198.5,173.5C 198.5,173.833 198.5,174.167 198.5,174.5C 189.622,184.933 178.955,192.933 166.5,198.5C 163.603,199.129 160.936,200.129 158.5,201.5C 157.791,202.404 156.791,202.737 155.5,202.5C 152.933,202.721 150.599,203.388 148.5,204.5C 146.708,204.366 145.042,204.699 143.5,205.5C 139.613,205.646 135.946,206.313 132.5,207.5C 126.175,208.166 119.675,208.5 113,208.5C 104.107,208.258 95.2736,207.592 86.5,206.5C 81.8065,204.386 76.8065,203.053 71.5,202.5C 54.3942,198.089 40.0609,189.089 28.5,175.5C 29.1667,175.5 29.8333,175.5 30.5,175.5C 36.677,177.155 41.677,180.655 45.5,186C 54.7304,188.494 63.0637,191.327 70.5,194.5C 71.4419,194.392 72.2753,194.059 73,193.5C 73.3742,194.416 73.8742,195.25 74.5,196C 80.0347,197.845 85.5347,199.678 91,201.5C 92,200.833 93,200.167 94,199.5C 98.0172,199.949 102.017,201.283 106,203.5C 109.401,203.535 112.901,203.368 116.5,203C 115.027,203.71 114.36,204.876 114.5,206.5C 119.844,206.666 125.177,206.499 130.5,206C 125.652,205.453 125.318,204.12 129.5,202C 135.841,201.084 141.841,199.251 147.5,196.5C 148.442,196.608 149.275,196.941 150,197.5C 150.5,196.333 151.333,195.5 152.5,195C 156.039,194.813 159.205,193.646 162,191.5C 162.333,191.833 162.667,192.167 163,192.5C 165,191.167 167,189.833 169,188.5C 169.333,189.167 169.667,189.833 170,190.5C 173.487,187.177 177.32,185.177 181.5,184.5C 184.806,181.369 187.806,178.036 190.5,174.5C 193.059,174.802 195.393,174.468 197.5,173.5 Z"/></g>
<g><path style="opacity:1" fill="#442a1f" d="M 112.5,164.5 C 113.833,164.5 115.167,164.5 116.5,164.5C 115.571,169.765 116.904,174.265 120.5,178C 131.36,179.444 139.693,175.611 145.5,166.5C 145.833,166.5 146.167,166.5 146.5,166.5C 147.434,167.568 147.768,168.901 147.5,170.5C 139.387,183.487 128.554,186.82 115,180.5C 108.942,185.14 102.109,186.64 94.5,185C 93.5842,184.722 92.9175,184.222 92.5,183.5C 93.552,183.649 94.552,183.483 95.5,183C 91.9295,181.881 88.5961,180.215 85.5,178C 83.3619,176.578 82.1953,174.745 82,172.5C 90.7582,181.66 100.592,183.327 111.5,177.5C 113.486,175.605 113.819,173.605 112.5,171.5C 112.5,169.167 112.5,166.833 112.5,164.5 Z"/></g>
<g><path style="opacity:1" fill="#e6a434" d="M 143.5,179.5 C 140.328,181.478 136.994,183.311 133.5,185C 126.72,187.528 120.387,186.694 114.5,182.5C 107.302,186.566 99.6356,187.566 91.5,185.5C 87.8168,183.659 84.4835,181.326 81.5,178.5C 81.5,177.833 81.5,177.167 81.5,176.5C 84.3811,180.044 88.0478,182.377 92.5,183.5C 92.9175,184.222 93.5842,184.722 94.5,185C 102.109,186.64 108.942,185.14 115,180.5C 128.554,186.82 139.387,183.487 147.5,170.5C 148.788,168.965 148.788,167.299 147.5,165.5C 146.893,165.624 146.56,165.957 146.5,166.5C 146.167,166.5 145.833,166.5 145.5,166.5C 146.183,164.824 147.517,164.157 149.5,164.5C 150.207,170.738 148.207,175.738 143.5,179.5 Z"/></g>
<g><path style="opacity:1" fill="#ebcaac" d="M 166.5,198.5 C 164.383,200.655 161.716,201.655 158.5,201.5C 160.936,200.129 163.603,199.129 166.5,198.5 Z"/></g>
<g><path style="opacity:1" fill="#dda169" d="M 71.5,202.5 C 76.8065,203.053 81.8065,204.386 86.5,206.5C 81.1906,205.924 76.1906,204.591 71.5,202.5 Z"/></g>
<g><path style="opacity:1" fill="#e8c7a8" d="M 155.5,202.5 C 153.562,204.163 151.228,204.829 148.5,204.5C 150.599,203.388 152.933,202.721 155.5,202.5 Z"/></g>
<g><path style="opacity:1" fill="#edcdae" d="M 143.5,205.5 C 143.082,206.222 142.416,206.722 141.5,207C 138.518,207.498 135.518,207.665 132.5,207.5C 135.946,206.313 139.613,205.646 143.5,205.5 Z"/></g>
</svg>